<?xml version="1.0" encoding="UTF-8" standalone="no"?>
<!DOCTYPE svg PUBLIC "-//W3C//DTD SVG 1.1//EN" "http://www.w3.org/Graphics/SVG/1.1/DTD/svg11.dtd">
<svg xmlns="http://www.w3.org/2000/svg" version="1.1" viewBox="0.00 0.00 500.00 500.00">
<g stroke-width="2.00" fill="none" stroke-linecap="butt">
<path stroke="#38b174" vector-effect="non-scaling-stroke" d="
  M 310.35 125.48
  L 288.01 151.25"
/>
<path stroke="#3daa4d" vector-effect="non-scaling-stroke" d="
  M 290.16 287.93
  Q 289.68 285.00 289.21 282.30
  Q 288.70 279.37 288.64 276.64
  Q 288.47 267.59 288.77 258.98"
/>
<path stroke="#e28117" vector-effect="non-scaling-stroke" d="
  M 196.26 133.98
  Q 196.23 135.26 196.56 136.60
  C 197.30 139.57 197.17 142.47 197.13 145.50
  Q 197.00 155.63 196.89 165.57"
/>
<path stroke="#eb5a23" vector-effect="non-scaling-stroke" d="
  M 196.12 273.83
  Q 196.45 273.66 196.24 274.28
  Q 196.17 274.47 196.02 274.64
  Q 182.65 290.01 177.18 296.68
  Q 175.52 298.71 172.34 303.76"
/>
</g>
<path fill="#24aa93" d="
  M 310.35 125.48
  L 288.01 151.25
  Q 280.96 157.98 274.93 165.04
  Q 267.02 174.32 266.98 174.37
  Q 256.88 185.85 248.78 195.78
  C 244.75 200.73 239.31 205.42 232.53 201.88
  C 225.02 197.97 223.39 189.83 228.96 183.42
  Q 258.83 149.08 289.50 113.69
  Q 293.96 108.55 300.50 109.52
  C 305.21 110.22 308.98 113.55 309.96 118.25
  Q 310.76 122.08 310.35 125.48
  Z"
/>
<path fill="#4cb754" d="
  M 310.35 125.48
  Q 310.60 201.73 311.58 277.25
  C 311.70 286.17 307.33 293.31 297.24 291.53
  Q 294.44 291.03 290.16 287.93
  Q 289.68 285.00 289.21 282.30
  Q 288.70 279.37 288.64 276.64
  Q 288.47 267.59 288.77 258.98
  L 288.01 151.25
  L 310.35 125.48
  Z"
/>
<path fill="#f8951e" d="
  M 196.26 133.98
  Q 196.23 135.26 196.56 136.60
  C 197.30 139.57 197.17 142.47 197.13 145.50
  Q 197.00 155.63 196.89 165.57
  L 196.12 273.83
  Q 196.45 273.66 196.24 274.28
  Q 196.17 274.47 196.02 274.64
  Q 182.65 290.01 177.18 296.68
  Q 175.52 298.71 172.34 303.76
  Q 171.95 260.84 172.30 242.50
  Q 173.27 192.50 173.40 142.50
  Q 173.41 137.08 175.77 133.29
  Q 176.80 131.65 179.40 130.45
  Q 189.01 126.04 196.26 133.98
  Z"
/>
<path fill="#cc6c0f" d="
  M 196.26 133.98
  Q 202.11 138.96 207.96 143.89
  Q 212.03 147.31 213.20 149.40
  C 216.24 154.84 214.69 161.84 209.19 165.20
  Q 204.35 168.15 196.89 165.57
  Q 197.00 155.63 197.13 145.50
  C 197.17 142.47 197.30 139.57 196.56 136.60
  Q 196.23 135.26 196.26 133.98
  Z"
/>
<path fill="#de1f27" d="
  M 172.34 303.76
  Q 175.52 298.71 177.18 296.68
  Q 182.65 290.01 196.02 274.64
  Q 196.17 274.47 196.24 274.28
  Q 196.45 273.66 196.12 273.83
  Q 197.42 273.48 198.14 272.62
  Q 202.00 267.98 206.38 262.90
  Q 223.74 242.78 240.84 222.42
  Q 243.17 219.65 245.83 217.30
  C 250.94 212.79 259.76 215.07 262.77 220.84
  Q 265.51 226.10 263.21 231.40
  C 262.04 234.09 259.92 236.20 257.99 238.47
  C 246.31 252.18 234.20 265.80 222.54 279.65
  Q 208.55 296.28 194.28 312.90
  C 189.83 318.09 183.14 318.74 177.51 315.19
  Q 175.29 313.79 173.93 310.48
  Q 172.57 307.17 172.34 303.76
  Z"
/>
<path fill="#2d9c46" d="
  M 288.77 258.98
  Q 288.47 267.59 288.64 276.64
  Q 288.70 279.37 289.21 282.30
  Q 289.68 285.00 290.16 287.93
  Q 280.77 282.03 272.09 276.13
  Q 268.33 273.57 267.12 271.64
  C 263.88 266.47 265.76 259.28 270.80 256.19
  Q 276.81 252.51 282.68 255.82
  Q 286.93 258.22 288.77 258.98
  Z"
/>
</svg>
