<?xml version="1.0" encoding="UTF-8" standalone="no"?>
<!DOCTYPE svg PUBLIC "-//W3C//DTD SVG 1.1//EN" "http://www.w3.org/Graphics/SVG/1.1/DTD/svg11.dtd">
<svg xmlns="http://www.w3.org/2000/svg" version="1.1" viewBox="0.00 0.00 500.00 500.00">
<path fill="#353c48" d="
  M 36.66 79.96
  C 39.64 85.10 42.32 90.19 45.44 95.36
  Q 58.67 117.24 71.58 138.70
  Q 150.08 269.26 228.71 399.88
  A 0.36 0.35 39.3 0 0 229.35 399.82
  Q 229.66 398.95 230.23 397.99
  Q 258.34 350.66 286.78 303.53
  Q 290.13 297.97 293.43 293.00
  A 0.96 0.95 21.4 0 1 294.38 292.59
  Q 294.95 292.69 295.13 293.18
  Q 295.57 294.34 294.97 295.35
  Q 266.18 343.38 238.62 389.34
  C 235.66 394.28 232.40 399.03 229.85 404.08
  A 0.94 0.93 -68.6 0 1 228.76 404.56
  Q 228.01 404.36 227.60 403.66
  Q 220.37 391.43 215.42 383.40
  Q 213.83 380.81 212.26 378.21
  Q 132.05 244.62 55.50 117.70
  Q 45.04 100.36 35.24 83.74
  Q 34.11 81.82 34.05 80.23
  Q 34.02 79.70 33.49 79.62
  L 30.13 79.16
  Q 29.20 79.03 29.17 78.09
  L 29.16 77.63
  A 0.95 0.95 0.0 0 1 30.13 76.65
  C 39.73 76.85 48.87 76.48 58.28 76.51
  C 98.87 76.65 140.50 76.89 182.50 76.54
  Q 194.45 76.44 206.75 76.86
  A 0.77 0.77 0.0 0 1 207.49 77.68
  Q 207.43 78.59 206.74 79.14
  A 1.47 1.47 0.0 0 0 206.42 81.10
  Q 210.61 87.46 215.31 93.95
  Q 234.89 120.94 254.06 147.57
  Q 255.38 149.39 257.07 151.24
  A 1.75 1.74 42.0 0 1 257.19 153.45
  Q 256.11 154.91 255.29 156.32
  Q 243.18 177.24 230.26 200.08
  Q 228.61 203.00 227.75 199.76
  C 227.32 198.16 227.11 196.87 226.16 195.44
  Q 207.41 167.19 189.00 139.26
  A 4.33 4.33 0.0 0 0 185.37 137.32
  L 134.94 137.60
  A 0.47 0.47 0.0 0 0 134.53 138.30
  Q 137.30 143.22 139.96 147.58
  Q 183.43 218.80 226.10 287.24
  Q 227.41 289.33 229.20 291.79
  A 0.49 0.49 0.0 0 0 229.97 291.82
  C 234.18 286.92 237.31 281.38 240.92 276.01
  Q 263.79 242.07 286.41 207.92
  Q 289.55 203.18 293.06 198.35
  Q 293.69 197.49 294.36 198.31
  L 366.50 285.88
  Q 367.03 286.51 367.40 285.77
  L 441.20 138.15
  A 0.62 0.61 12.7 0 0 440.63 137.26
  Q 418.54 137.74 399.26 137.37
  C 395.95 137.31 392.86 135.76 390.71 139.39
  Q 375.74 164.64 360.77 189.93
  Q 359.94 191.33 359.55 192.73
  Q 359.41 193.25 359.65 193.73
  L 361.15 196.73
  A 1.03 1.02 -31.2 0 1 360.83 198.01
  Q 360.16 198.50 359.39 198.19
  C 358.58 197.86 358.38 197.06 357.54 196.72
  Q 357.16 196.57 356.89 196.88
  L 355.79 198.17
  Q 355.49 198.52 355.04 198.45
  Q 353.80 198.28 353.64 197.01
  Q 353.57 196.45 353.88 195.97
  C 354.78 194.59 355.39 192.92 354.30 191.43
  Q 341.51 173.95 330.27 157.78
  A 0.76 0.76 0.0 0 0 329.05 157.75
  L 327.55 159.71
  Q 326.68 160.84 325.55 159.97
  L 325.21 159.71
  Q 324.34 159.04 325.02 158.18
  L 332.62 148.43
  Q 333.32 147.54 334.35 148.00
  Q 334.64 148.13 334.90 148.50
  A 1.31 1.30 -44.8 0 1 334.89 150.00
  L 332.60 153.22
  A 2.59 2.58 -45.1 0 0 332.60 156.23
  L 356.84 190.17
  A 0.31 0.30 -47.7 0 0 357.35 190.14
  Q 363.05 180.03 368.45 170.98
  Q 377.75 155.39 387.10 139.33
  C 388.10 137.61 388.19 135.52 389.72 134.17
  Q 391.29 132.79 392.84 131.39
  A 0.65 0.64 -48.2 0 1 393.63 131.34
  Q 394.48 131.91 394.39 133.03
  A 1.07 1.07 0.0 0 0 395.46 134.20
  Q 419.68 134.09 441.00 134.49
  Q 443.84 134.54 445.16 131.62
  A 1.03 1.01 -79.9 0 1 446.00 131.02
  Q 446.42 130.99 446.72 131.28
  Q 447.18 131.74 447.12 132.36
  Q 446.96 133.92 448.14 134.84
  Q 449.88 136.21 447.69 136.55
  C 445.93 136.82 444.74 137.77 443.93 139.37
  Q 412.21 202.94 379.65 267.74
  Q 375.65 275.70 371.75 283.33
  C 370.04 286.66 368.66 288.74 370.57 291.64
  Q 371.36 292.83 369.93 292.98
  Q 369.13 293.07 368.40 292.57
  A 0.78 0.78 0.0 0 0 367.32 292.75
  L 366.19 294.27
  Q 365.84 294.75 365.24 294.70
  Q 364.65 294.64 364.35 294.03
  Q 364.09 293.49 364.32 292.96
  C 365.47 290.43 365.93 289.22 363.94 286.91
  Q 357.38 279.28 350.65 271.10
  Q 322.53 236.95 294.46 202.81
  A 0.32 0.32 0.0 0 0 293.95 202.83
  C 292.01 205.59 289.86 208.15 287.97 210.97
  Q 258.78 254.62 229.86 297.92
  A 0.96 0.96 0.0 0 1 228.15 297.70
  C 227.53 295.94 226.91 294.30 225.92 292.69
  Q 177.74 214.44 131.75 139.92
  Q 130.82 138.41 129.49 137.23
  Q 127.79 135.72 127.75 132.65
  Q 127.71 129.40 129.68 131.99
  C 131.04 133.79 131.89 134.57 134.45 134.54
  Q 155.67 134.33 178.25 134.34
  Q 179.52 134.34 183.89 133.99
  Q 184.43 133.94 184.65 133.45
  L 185.45 131.69
  A 0.73 0.73 0.0 0 1 186.58 131.43
  Q 188.11 132.71 189.22 134.40
  Q 208.87 164.54 228.85 194.39
  A 0.74 0.73 -45.9 0 0 230.08 194.37
  Q 232.13 191.13 233.93 187.94
  Q 248.49 162.06 252.80 154.95
  C 254.54 152.08 252.57 150.36 250.46 147.43
  Q 226.78 114.53 202.65 81.15
  A 3.51 3.50 71.9 0 0 199.82 79.71
  L 36.83 79.68
  A 0.19 0.19 0.0 0 0 36.66 79.96
  Z"
/>
</svg>
