<?xml version="1.0" encoding="UTF-8" standalone="no"?>
<!DOCTYPE svg PUBLIC "-//W3C//DTD SVG 1.1//EN" "http://www.w3.org/Graphics/SVG/1.1/DTD/svg11.dtd">
<svg xmlns="http://www.w3.org/2000/svg" version="1.1" viewBox="0.00 0.00 500.00 500.00">
<path fill="#e76c4f" d="
  M 188.04 209.41
  A 0.37 0.37 0.0 0 0 187.73 209.97
  L 224.36 269.43
  A 0.51 0.51 0.0 0 0 225.21 269.45
  L 249.82 232.74
  Q 250.22 232.15 250.76 232.61
  Q 251.70 233.44 253.06 233.47
  Q 253.67 233.48 254.06 233.95
  L 281.09 266.86
  A 0.42 0.42 0.0 0 0 281.79 266.78
  L 310.22 209.96
  A 0.32 0.32 0.0 0 0 309.94 209.50
  L 294.24 209.23
  A 2.22 2.20 15.6 0 0 292.30 210.31
  L 280.60 230.02
  Q 280.34 230.46 280.35 230.97
  Q 280.39 233.06 278.13 233.90
  Q 277.79 234.02 277.45 233.90
  C 274.86 233.01 275.31 231.24 274.06 229.43
  Q 270.21 223.91 266.43 219.02
  C 265.61 217.97 264.51 217.19 263.43 216.41
  Q 262.91 216.02 263.32 215.51
  L 266.21 211.99
  Q 266.57 211.56 267.08 211.77
  Q 269.67 212.83 269.20 214.95
  Q 269.06 215.54 269.42 216.05
  L 277.17 226.99
  A 0.43 0.43 0.0 0 0 277.89 226.96
  L 290.76 205.21
  Q 291.05 204.73 291.60 204.86
  C 292.70 205.13 293.72 205.50 294.86 205.51
  Q 303.30 205.58 310.36 205.45
  Q 311.92 205.42 313.51 205.07
  C 315.16 204.70 316.72 206.20 315.99 207.93
  C 315.33 209.49 314.25 210.58 313.50 212.08
  Q 299.91 239.25 285.74 267.48
  C 284.66 269.63 284.39 271.85 282.61 273.64
  Q 282.29 273.95 281.87 273.81
  Q 279.37 272.98 278.95 270.85
  Q 278.84 270.28 278.47 269.83
  L 251.80 237.64
  A 0.44 0.44 0.0 0 0 251.10 237.68
  L 226.19 275.14
  Q 225.87 275.61 225.36 275.36
  C 224.25 274.81 222.95 274.62 222.26 273.51
  Q 201.70 240.12 181.39 207.21
  A 0.79 0.78 49.7 0 1 181.46 206.29
  C 183.39 204.02 185.09 205.48 187.34 205.49
  Q 195.71 205.51 204.22 205.49
  C 205.44 205.49 206.45 205.30 207.61 204.91
  Q 208.19 204.71 208.54 205.23
  L 224.28 229.01
  A 0.42 0.42 0.0 0 0 224.99 228.98
  L 232.95 214.88
  A 0.83 0.83 0.0 0 0 232.90 213.99
  L 212.96 186.32
  A 2.09 2.07 -17.7 0 0 211.27 185.46
  L 147.75 185.47
  A 0.47 0.47 0.0 0 0 147.35 186.18
  L 223.98 313.48
  Q 224.45 314.25 224.90 313.48
  L 249.69 272.18
  Q 250.02 271.64 250.59 271.94
  L 252.84 273.15
  Q 253.43 273.47 253.09 274.05
  L 226.15 319.20
  Q 225.76 319.85 225.23 319.30
  Q 224.53 318.57 223.79 319.26
  Q 223.13 319.87 222.66 319.10
  L 141.57 184.23
  A 1.80 1.79 -15.5 0 1 143.11 181.51
  L 215.30 181.53
  Q 215.83 181.53 215.90 182.05
  L 216.03 183.11
  Q 216.10 183.71 216.46 184.19
  L 237.09 212.90
  A 2.18 2.18 0.0 0 1 237.22 215.24
  L 226.26 234.51
  Q 226.00 234.97 225.48 234.87
  Q 223.13 234.44 221.82 232.43
  Q 214.41 221.00 207.02 209.87
  Q 206.72 209.42 206.18 209.42
  L 188.04 209.41
  Z"
/>
</svg>
