<?xml version="1.0" encoding="UTF-8" standalone="no"?>
<!DOCTYPE svg PUBLIC "-//W3C//DTD SVG 1.1//EN" "http://www.w3.org/Graphics/SVG/1.1/DTD/svg11.dtd">
<svg xmlns="http://www.w3.org/2000/svg" version="1.1" viewBox="0.00 0.00 500.00 500.00">
<g stroke-width="2.00" fill="none" stroke-linecap="butt">
<path stroke="#fe6241" vector-effect="non-scaling-stroke" d="
  M 239.21 301.49
  C 238.63 303.09 237.27 304.26 236.55 305.46
  Q 235.71 306.88 234.96 308.36
  Q 234.47 309.35 234.39 310.79"
/>
<path stroke="#ff6f45" vector-effect="non-scaling-stroke" d="
  M 152.39 273.27
  Q 152.28 273.51 152.10 273.59
  Q 151.71 273.78 151.50 273.39
  Q 151.25 272.92 150.69 273.11
  A 0.14 0.14 0.0 0 1 150.50 272.99
  Q 150.49 272.84 150.58 272.69
  Q 151.04 271.85 150.29 272.44
  Q 148.97 273.49 147.44 273.93
  Q 146.95 274.08 146.79 274.56
  Q 146.65 274.97 146.30 274.88
  Q 145.63 274.70 145.30 275.30
  Q 144.78 276.23 144.03 276.82"
/>
<path stroke="#ff6f45" vector-effect="non-scaling-stroke" d="
  M 238.35 416.13
  L 234.25 422.87
  Q 233.95 423.34 234.26 423.81
  C 235.12 425.15 236.51 425.12 237.35 426.08
  Q 237.71 426.50 237.75 426.95"
/>
<path stroke="#ff6f45" vector-effect="non-scaling-stroke" d="
  M 386.32 309.45
  Q 384.66 305.85 381.66 303.82"
/>
<path stroke="#ff6f45" vector-effect="non-scaling-stroke" d="
  M 381.41 199.69
  L 377.88 206.29"
/>
</g>
<path fill="#fe6241" d="
  M 239.21 301.49
  C 238.63 303.09 237.27 304.26 236.55 305.46
  Q 235.71 306.88 234.96 308.36
  Q 234.47 309.35 234.39 310.79
  L 126.52 135.78
  Q 126.20 135.26 126.72 134.94
  L 133.29 130.90
  Q 133.88 130.54 134.24 131.13
  L 135.39 132.99
  A 1.67 1.67 0.0 0 0 136.81 133.78
  L 189.81 133.76
  Q 190.45 133.76 191.00 133.41
  L 194.97 130.89
  Q 195.47 130.57 195.80 131.07
  L 238.46 195.75
  Q 238.96 196.51 239.40 195.72
  L 261.74 156.21
  A 0.44 0.44 0.0 0 0 261.72 155.74
  L 207.91 81.09
  A 1.44 1.44 0.0 0 0 206.75 80.50
  L 37.15 80.45
  Q 36.35 80.45 36.76 81.14
  L 152.39 273.27
  Q 152.28 273.51 152.10 273.59
  Q 151.71 273.78 151.50 273.39
  Q 151.25 272.92 150.69 273.11
  A 0.14 0.14 0.0 0 1 150.50 272.99
  Q 150.49 272.84 150.58 272.69
  Q 151.04 271.85 150.29 272.44
  Q 148.97 273.49 147.44 273.93
  Q 146.95 274.08 146.79 274.56
  Q 146.65 274.97 146.30 274.88
  Q 145.63 274.70 145.30 275.30
  Q 144.78 276.23 144.03 276.82
  L 26.73 81.77
  Q 26.51 81.40 26.53 80.98
  Q 26.54 80.72 26.39 80.53
  Q 26.10 80.13 25.64 80.33
  Q 23.88 81.09 23.85 79.24
  Q 23.78 75.79 23.91 72.09
  Q 23.93 71.51 24.52 71.51
  L 215.49 71.50
  A 0.53 0.53 0.0 0 1 216.02 72.04
  C 216.00 73.94 215.60 76.26 216.80 77.92
  Q 243.72 115.40 271.71 154.24
  Q 272.04 154.70 271.72 155.16
  Q 271.49 155.50 271.65 155.87
  Q 271.92 156.48 271.59 157.06
  L 241.73 209.51
  A 0.55 0.54 28.7 0 1 241.00 209.72
  C 239.31 208.85 237.41 207.47 235.56 206.97
  C 234.19 206.60 233.94 205.16 233.25 204.11
  Q 213.15 173.64 193.16 143.28
  Q 192.82 142.77 192.21 142.77
  L 142.19 142.75
  Q 141.43 142.75 141.83 143.39
  L 239.21 301.49
  Z"
/>
<path fill="#fe6241" d="
  M 386.32 309.45
  Q 384.66 305.85 381.66 303.82
  Q 381.94 303.32 381.26 302.49
  Q 344.94 258.41 308.62 214.32
  A 0.22 0.21 42.4 0 0 308.27 214.33
  L 241.75 313.82
  A 0.77 0.76 32.8 0 1 240.71 314.04
  L 237.24 311.83
  Q 236.83 311.58 236.38 311.77
  Q 235.13 312.30 234.39 310.79
  Q 234.47 309.35 234.96 308.36
  Q 235.71 306.88 236.55 305.46
  C 237.27 304.26 238.63 303.09 239.21 301.49
  L 305.04 203.01
  A 0.59 0.58 33.4 0 1 305.85 202.85
  L 310.48 205.90
  Q 311.11 206.31 311.64 205.78
  L 311.98 205.44
  Q 312.51 204.91 312.99 205.49
  L 386.04 294.22
  A 0.23 0.23 0.0 0 0 386.42 294.18
  L 462.06 143.27
  Q 462.32 142.76 461.74 142.76
  L 415.78 142.75
  Q 415.04 142.75 414.67 143.39
  L 381.41 199.69
  L 377.88 206.29
  Q 377.71 206.72 377.11 207.04
  Q 376.67 207.27 376.25 207.00
  L 369.70 202.78
  A 0.64 0.63 -59.2 0 1 369.49 201.93
  L 370.54 200.05
  Q 370.77 199.65 370.50 199.28
  Q 357.90 181.44 346.85 165.92
  Q 346.39 165.28 346.03 165.98
  Q 345.88 166.24 345.25 166.05
  Q 344.92 165.95 344.65 165.74
  L 338.94 161.31
  A 0.49 0.48 -52.0 0 1 338.86 160.62
  L 347.78 149.28
  Q 348.38 148.52 349.13 149.13
  L 354.62 153.67
  Q 355.36 154.27 354.76 155.02
  L 352.72 157.57
  A 0.93 0.93 0.0 0 0 352.69 158.69
  L 375.45 190.71
  Q 375.68 191.05 375.99 190.77
  Q 376.25 190.54 376.44 190.22
  Q 392.72 162.98 407.70 137.48
  Q 408.52 136.09 409.28 134.63
  Q 410.12 133.02 411.63 131.22
  Q 411.97 130.81 412.42 131.10
  C 414.18 132.21 416.33 133.81 418.48 133.81
  Q 442.68 133.73 466.24 133.79
  Q 466.81 133.79 467.10 133.29
  L 467.98 131.78
  Q 468.27 131.28 468.80 131.51
  L 474.82 134.08
  A 1.55 1.55 0.0 0 1 475.53 136.31
  Q 475.40 136.53 475.26 136.74
  Q 475.04 137.08 475.01 137.49
  Q 474.88 139.73 474.94 142.06
  Q 474.96 142.75 474.27 142.75
  L 472.80 142.74
  Q 472.28 142.74 472.05 143.21
  L 392.90 301.17
  Q 392.59 301.79 392.89 302.40
  Q 393.14 302.92 393.68 303.37
  A 0.72 0.72 0.0 0 1 393.60 304.53
  Q 390.42 306.54 388.62 309.60
  Q 388.34 310.07 387.80 310.04
  Q 386.86 309.99 386.32 309.45
  Z"
/>
<path fill="#ff7c49" d="
  M 381.41 199.69
  Q 383.00 200.86 383.19 201.95
  Q 383.28 202.47 382.85 202.77
  L 377.88 206.29
  L 381.41 199.69
  Z"
/>
<path fill="#ff7c49" d="
  M 152.39 273.27
  L 238.35 416.13
  L 234.25 422.87
  Q 233.95 423.34 234.26 423.81
  C 235.12 425.15 236.51 425.12 237.35 426.08
  Q 237.71 426.50 237.75 426.95
  L 235.82 428.09
  A 0.68 0.67 58.8 0 1 234.90 427.86
  L 144.03 276.82
  Q 144.78 276.23 145.30 275.30
  Q 145.63 274.70 146.30 274.88
  Q 146.65 274.97 146.79 274.56
  Q 146.95 274.08 147.44 273.93
  Q 148.97 273.49 150.29 272.44
  Q 151.04 271.85 150.58 272.69
  Q 150.49 272.84 150.50 272.99
  A 0.14 0.14 0.0 0 0 150.69 273.11
  Q 151.25 272.92 151.50 273.39
  Q 151.71 273.78 152.10 273.59
  Q 152.28 273.51 152.39 273.27
  Z"
/>
<path fill="#ff7c49" d="
  M 381.66 303.82
  Q 384.66 305.85 386.32 309.45
  L 380.92 306.74
  Q 380.42 306.49 380.65 305.99
  L 381.66 303.82
  Z"
/>
<path fill="#fe6241" d="
  M 237.75 426.95
  Q 237.71 426.50 237.35 426.08
  C 236.51 425.12 235.12 425.15 234.26 423.81
  Q 233.95 423.34 234.25 422.87
  L 238.35 416.13
  L 305.14 304.74
  Q 305.27 304.52 305.49 304.65
  L 312.82 309.19
  Q 312.96 309.28 312.88 309.42
  L 241.83 427.78
  Q 241.48 428.37 240.89 428.02
  Q 238.81 426.79 237.75 426.95
  Z"
/>
</svg>
